<svg
	xmlns="http://www.w3.org/2000/svg"
	width="296.632"
	height="296.565"
	viewBox="0 0 296.632 296.565"
>
	<defs>
		<style>
			.cls-1 {
				fill: #055;
			}
		</style>
	</defs>
	<path
		id="instagram"
		class="cls-1"
		d="M148.274,104.072a76.036,76.036,0,1,0,76.036,76.036A75.915,75.915,0,0,0,148.274,104.072Zm0,125.469a49.433,49.433,0,1,1,49.433-49.433,49.523,49.523,0,0,1-49.433,49.433Zm96.881-128.579A17.735,17.735,0,1,1,227.42,83.227,17.694,17.694,0,0,1,245.155,100.962Zm50.36,18c-1.125-23.757-6.551-44.8-23.956-62.139-17.338-17.338-38.382-22.764-62.139-23.956-24.485-1.39-97.874-1.39-122.359,0-23.691,1.125-44.735,6.551-62.139,23.889S2.158,95.139.967,118.9c-1.39,24.485-1.39,97.874,0,122.359,1.125,23.757,6.551,44.8,23.956,62.139S63.3,326.157,87.062,327.349c24.485,1.39,97.874,1.39,122.359,0,23.757-1.125,44.8-6.551,62.139-23.956,17.338-17.338,22.764-38.382,23.956-62.139,1.39-24.485,1.39-97.808,0-122.292ZM263.883,267.526a50.047,50.047,0,0,1-28.191,28.191c-19.522,7.742-65.845,5.956-87.418,5.956s-67.962,1.721-87.418-5.956a50.047,50.047,0,0,1-28.191-28.191C24.923,248,26.71,201.681,26.71,180.108s-1.721-67.962,5.956-87.418A50.047,50.047,0,0,1,60.856,64.5c19.522-7.743,65.845-5.956,87.418-5.956s67.962-1.721,87.418,5.956A50.047,50.047,0,0,1,263.883,92.69c7.743,19.522,5.956,65.845,5.956,87.418S271.626,248.07,263.883,267.526Z"
		transform="translate(0.075 -31.825)"
	/>
</svg>
